<svg xmlns="http://www.w3.org/2000/svg" viewBox="0 0 124.699 168.678" xmlns:v="https://vecta.io/nano"><path d="M40.756 111.538c2.376-4.814 6.159-8.6 9.361-12.81 3.684-5.638 8.166-10.464 14.068-13.855 4.616 1.564 9.286 3.055 11.597 7.976-6.555 9.598-13.58 18.845-20.858 27.902-6.363-.547-10.913-3.884-14.168-9.213z" fill="#0a9247"/><path d="M105.618 27.706c-5.58 10.889-7.019 23.278-12.393 34.242-3.695-.558-5.959-3.562-8.997-5.246-2.981-2.117-7.802-1.986-8.482-6.918 6.262-10.117 14.055-19.018 22.031-27.775 3.057 1.289 5.853 2.936 7.841 5.697z" fill="#f9a01e"/><path d="M75.746 49.784c2.18 3.433 6.232 4.112 9.26 6.298 1.206 1.545.186 2.87-.594 4.032-2.745 4.089-5.072 8.486-8.613 12.004-3.28 2.636-5.348 6.361-8.301 9.296-1.613 1.474-3.048 3.288-5.604 3-3.811-2.087-8.143-3.495-10.267-7.805 7.468-9.456 16.913-17.133 24.119-26.824z" fill="#f5eb21"/><path d="M51.627 76.608l10.601 7.22c-2.929 5.997-8.06 9.893-13.17 13.808l-10.81 12.529c-4.59-.363-7.787-2.86-10.155-6.629 1.558-4.42 4.976-7.581 8.019-10.805 5.116-5.419 9.242-11.821 15.515-16.123z" fill="#0b9247"/><path d="M75.085 71.214c3.928-4.639 7.463-9.536 9.921-15.136l8.218 5.87c-3.926 11.365-10.582 21.19-17.441 30.899-3.629-2.867-7.563-5.246-11.692-7.312-.232-2.246 1.914-2.865 2.914-4.269 2.987-3.115 5.706-6.446 8.081-10.053z" fill="#f5eb21"/><path d="M40.756 111.538c4.323 3.686 8.858 7.045 14.168 9.213-5.227 7.531-14.028 10.23-20.988 15.421-2.434 1.815-5.01 3.677-8.07 4.526-.721.2-1.371.937-2.119-.015-.599-.762.08-1.111.365-1.624 5.22-9.372 9.977-19.024 16.644-27.52z" fill="#3f6ab3"/><path d="M28.093 103.536l10.154 6.629c-3.193 4.543-6.261 9.182-9.614 13.604-3.894 5.135-6.481 10.866-8.492 16.915-1.2.399-1.809-.246-2.216-1.251.62-9.908 1.71-19.688 5.945-28.892 1.169-2.54 2.419-4.907 4.223-7.006z" fill="#406ab3"/><path d="M105.618 27.706c-2.894-1.514-5.894-2.881-7.839-5.699 7.684-8.901 16.024-16.996 26.92-22.006-8.674 7.699-13.746 17.794-19.081 27.706z" fill="#ea2b27"/><path d="M17.924 139.433l2.216 1.251c-2.904 8.609-4.33 17.834-10.606 25.027-3.077 3.526-4.302 3.819-9.535 1.353 8.02-.473 10.585-6.106 12.769-11.855 1.962-5.166 3.455-10.51 5.156-15.776z" fill="#8b3492"/></svg>